<mxfile host="app.diagrams.net" modified="2021-09-08T12:02:01.716Z" agent="5.0 (Windows NT 10.0; Win64; x64) AppleWebKit/537.36 (KHTML, like Gecko) Chrome/93.0.4577.63 Safari/537.36 Edg/93.0.961.38" etag="Z6DvTNZMxmEnZfbYsnu8" version="15.1.1" type="github">
  <diagram id="52Z8lRzMl7dw3zWmuUV-" name="Page-1">
    <mxGraphModel dx="1002" dy="714" grid="1" gridSize="10" guides="1" tooltips="1" connect="1" arrows="1" fold="1" page="1" pageScale="1" pageWidth="827" pageHeight="1169" math="0" shadow="0">
      <root>
        <mxCell id="0" />
        <mxCell id="1" parent="0" />
        <mxCell id="gm9R7flEmmk7f2T_RE_j-1" value="" style="edgeStyle=orthogonalEdgeStyle;rounded=0;orthogonalLoop=1;jettySize=auto;html=1;" edge="1" parent="1" source="gm9R7flEmmk7f2T_RE_j-2" target="gm9R7flEmmk7f2T_RE_j-9">
          <mxGeometry relative="1" as="geometry" />
        </mxCell>
        <mxCell id="gm9R7flEmmk7f2T_RE_j-2" value="下订单（和显示价格无关，全都是校验）" style="rounded=0;whiteSpace=wrap;html=1;" vertex="1" parent="1">
          <mxGeometry x="320" y="80" width="120" height="60" as="geometry" />
        </mxCell>
        <mxCell id="gm9R7flEmmk7f2T_RE_j-3" value="获取商品信息&amp;amp;&amp;amp;验证是否可用购买" style="shape=process;whiteSpace=wrap;html=1;backgroundOutline=1;rounded=0;" vertex="1" parent="1">
          <mxGeometry x="620" y="250" width="120" height="60" as="geometry" />
        </mxCell>
        <mxCell id="gm9R7flEmmk7f2T_RE_j-4" value="验证商品信息是否有（&lt;b&gt;期货和预售&lt;/b&gt;）变动" style="shape=process;whiteSpace=wrap;html=1;backgroundOutline=1;rounded=0;" vertex="1" parent="1">
          <mxGeometry x="620" y="380" width="120" height="60" as="geometry" />
        </mxCell>
        <mxCell id="gm9R7flEmmk7f2T_RE_j-5" value="检查是否期货商品&amp;amp;&amp;amp;检查是否购买满足条件" style="shape=process;whiteSpace=wrap;html=1;backgroundOutline=1;rounded=0;" vertex="1" parent="1">
          <mxGeometry x="620" y="520" width="120" height="60" as="geometry" />
        </mxCell>
        <mxCell id="gm9R7flEmmk7f2T_RE_j-6" value="检查是否是预售商品&amp;amp;&amp;amp;判断预售库存是否够" style="shape=process;whiteSpace=wrap;html=1;backgroundOutline=1;rounded=0;" vertex="1" parent="1">
          <mxGeometry x="620" y="650" width="120" height="60" as="geometry" />
        </mxCell>
        <mxCell id="gm9R7flEmmk7f2T_RE_j-7" value="" style="edgeStyle=orthogonalEdgeStyle;rounded=0;orthogonalLoop=1;jettySize=auto;html=1;" edge="1" parent="1" source="gm9R7flEmmk7f2T_RE_j-9" target="gm9R7flEmmk7f2T_RE_j-12">
          <mxGeometry relative="1" as="geometry" />
        </mxCell>
        <mxCell id="gm9R7flEmmk7f2T_RE_j-8" value="" style="edgeStyle=orthogonalEdgeStyle;rounded=0;orthogonalLoop=1;jettySize=auto;html=1;" edge="1" parent="1" source="gm9R7flEmmk7f2T_RE_j-9" target="gm9R7flEmmk7f2T_RE_j-16">
          <mxGeometry relative="1" as="geometry" />
        </mxCell>
        <mxCell id="gm9R7flEmmk7f2T_RE_j-9" value="&lt;span&gt;获取商品信息&amp;amp;&amp;amp;验证是否可用购买&lt;/span&gt;" style="rhombus;whiteSpace=wrap;html=1;rounded=0;" vertex="1" parent="1">
          <mxGeometry x="340" y="210" width="80" height="80" as="geometry" />
        </mxCell>
        <mxCell id="gm9R7flEmmk7f2T_RE_j-10" value="" style="edgeStyle=orthogonalEdgeStyle;rounded=0;orthogonalLoop=1;jettySize=auto;html=1;" edge="1" parent="1" source="gm9R7flEmmk7f2T_RE_j-12" target="gm9R7flEmmk7f2T_RE_j-15">
          <mxGeometry relative="1" as="geometry" />
        </mxCell>
        <mxCell id="gm9R7flEmmk7f2T_RE_j-11" style="edgeStyle=orthogonalEdgeStyle;rounded=0;orthogonalLoop=1;jettySize=auto;html=1;" edge="1" parent="1" source="gm9R7flEmmk7f2T_RE_j-12" target="gm9R7flEmmk7f2T_RE_j-16">
          <mxGeometry relative="1" as="geometry" />
        </mxCell>
        <mxCell id="gm9R7flEmmk7f2T_RE_j-12" value="&lt;span&gt;验证商品信息是否有变动&lt;/span&gt;" style="rhombus;whiteSpace=wrap;html=1;rounded=0;" vertex="1" parent="1">
          <mxGeometry x="340" y="370" width="80" height="80" as="geometry" />
        </mxCell>
        <mxCell id="gm9R7flEmmk7f2T_RE_j-13" style="edgeStyle=orthogonalEdgeStyle;rounded=0;orthogonalLoop=1;jettySize=auto;html=1;entryX=0.5;entryY=0;entryDx=0;entryDy=0;" edge="1" parent="1" source="gm9R7flEmmk7f2T_RE_j-15" target="gm9R7flEmmk7f2T_RE_j-16">
          <mxGeometry relative="1" as="geometry" />
        </mxCell>
        <mxCell id="gm9R7flEmmk7f2T_RE_j-14" value="" style="edgeStyle=orthogonalEdgeStyle;rounded=0;orthogonalLoop=1;jettySize=auto;html=1;" edge="1" parent="1" source="gm9R7flEmmk7f2T_RE_j-15" target="gm9R7flEmmk7f2T_RE_j-19">
          <mxGeometry relative="1" as="geometry" />
        </mxCell>
        <mxCell id="gm9R7flEmmk7f2T_RE_j-15" value="&lt;span&gt;检查是否期货商品&amp;amp;&amp;amp;检查是否购买满足条件&lt;/span&gt;" style="rhombus;whiteSpace=wrap;html=1;rounded=0;" vertex="1" parent="1">
          <mxGeometry x="340" y="530" width="80" height="80" as="geometry" />
        </mxCell>
        <mxCell id="gm9R7flEmmk7f2T_RE_j-16" value="抛错end" style="ellipse;whiteSpace=wrap;html=1;rounded=0;" vertex="1" parent="1">
          <mxGeometry x="450" y="1260" width="120" height="60" as="geometry" />
        </mxCell>
        <mxCell id="gm9R7flEmmk7f2T_RE_j-17" style="edgeStyle=orthogonalEdgeStyle;rounded=0;orthogonalLoop=1;jettySize=auto;html=1;entryX=0.5;entryY=0;entryDx=0;entryDy=0;" edge="1" parent="1" source="gm9R7flEmmk7f2T_RE_j-19" target="gm9R7flEmmk7f2T_RE_j-16">
          <mxGeometry relative="1" as="geometry" />
        </mxCell>
        <mxCell id="gm9R7flEmmk7f2T_RE_j-18" value="" style="edgeStyle=orthogonalEdgeStyle;rounded=0;orthogonalLoop=1;jettySize=auto;html=1;" edge="1" parent="1" source="gm9R7flEmmk7f2T_RE_j-19" target="gm9R7flEmmk7f2T_RE_j-24">
          <mxGeometry relative="1" as="geometry" />
        </mxCell>
        <mxCell id="gm9R7flEmmk7f2T_RE_j-19" value="检查是否是预售商品&amp;amp;&amp;amp;判断预售库存是否够" style="rhombus;whiteSpace=wrap;html=1;rounded=0;" vertex="1" parent="1">
          <mxGeometry x="340" y="690" width="80" height="80" as="geometry" />
        </mxCell>
        <mxCell id="gm9R7flEmmk7f2T_RE_j-20" style="edgeStyle=orthogonalEdgeStyle;rounded=0;orthogonalLoop=1;jettySize=auto;html=1;entryX=0.5;entryY=0;entryDx=0;entryDy=0;" edge="1" parent="1" source="gm9R7flEmmk7f2T_RE_j-22" target="gm9R7flEmmk7f2T_RE_j-16">
          <mxGeometry relative="1" as="geometry" />
        </mxCell>
        <mxCell id="gm9R7flEmmk7f2T_RE_j-21" value="" style="edgeStyle=orthogonalEdgeStyle;rounded=0;orthogonalLoop=1;jettySize=auto;html=1;" edge="1" parent="1" source="gm9R7flEmmk7f2T_RE_j-22" target="gm9R7flEmmk7f2T_RE_j-35">
          <mxGeometry relative="1" as="geometry" />
        </mxCell>
        <mxCell id="gm9R7flEmmk7f2T_RE_j-22" value="&lt;span&gt;验证混批（最少购买单数）&lt;/span&gt;" style="rhombus;whiteSpace=wrap;html=1;rounded=0;" vertex="1" parent="1">
          <mxGeometry x="340" y="1110" width="80" height="80" as="geometry" />
        </mxCell>
        <mxCell id="gm9R7flEmmk7f2T_RE_j-23" value="" style="edgeStyle=orthogonalEdgeStyle;rounded=0;orthogonalLoop=1;jettySize=auto;html=1;" edge="1" parent="1" source="gm9R7flEmmk7f2T_RE_j-24" target="gm9R7flEmmk7f2T_RE_j-28">
          <mxGeometry relative="1" as="geometry" />
        </mxCell>
        <mxCell id="gm9R7flEmmk7f2T_RE_j-24" value="获取正常商品sku" style="whiteSpace=wrap;html=1;rounded=0;" vertex="1" parent="1">
          <mxGeometry x="320" y="840" width="120" height="60" as="geometry" />
        </mxCell>
        <mxCell id="gm9R7flEmmk7f2T_RE_j-25" style="edgeStyle=orthogonalEdgeStyle;rounded=0;orthogonalLoop=1;jettySize=auto;html=1;" edge="1" parent="1" source="gm9R7flEmmk7f2T_RE_j-28">
          <mxGeometry relative="1" as="geometry">
            <mxPoint x="510" y="1210" as="targetPoint" />
          </mxGeometry>
        </mxCell>
        <mxCell id="gm9R7flEmmk7f2T_RE_j-26" value="" style="edgeStyle=orthogonalEdgeStyle;rounded=0;orthogonalLoop=1;jettySize=auto;html=1;entryX=1;entryY=0.5;entryDx=0;entryDy=0;" edge="1" parent="1" source="gm9R7flEmmk7f2T_RE_j-28" target="gm9R7flEmmk7f2T_RE_j-30">
          <mxGeometry relative="1" as="geometry">
            <mxPoint x="280" y="1010" as="targetPoint" />
          </mxGeometry>
        </mxCell>
        <mxCell id="gm9R7flEmmk7f2T_RE_j-27" value="" style="edgeStyle=orthogonalEdgeStyle;rounded=0;orthogonalLoop=1;jettySize=auto;html=1;" edge="1" parent="1" source="gm9R7flEmmk7f2T_RE_j-28" target="gm9R7flEmmk7f2T_RE_j-22">
          <mxGeometry relative="1" as="geometry" />
        </mxCell>
        <mxCell id="gm9R7flEmmk7f2T_RE_j-28" value="检查SAP是否库存" style="rhombus;whiteSpace=wrap;html=1;rounded=0;" vertex="1" parent="1">
          <mxGeometry x="340" y="970" width="80" height="80" as="geometry" />
        </mxCell>
        <mxCell id="gm9R7flEmmk7f2T_RE_j-29" value="" style="edgeStyle=orthogonalEdgeStyle;rounded=0;orthogonalLoop=1;jettySize=auto;html=1;" edge="1" parent="1" source="gm9R7flEmmk7f2T_RE_j-30" target="gm9R7flEmmk7f2T_RE_j-38">
          <mxGeometry relative="1" as="geometry" />
        </mxCell>
        <mxCell id="gm9R7flEmmk7f2T_RE_j-30" value="推送SAP,获取信息，接受修复好货通库存" style="shape=process;whiteSpace=wrap;html=1;backgroundOutline=1;" vertex="1" parent="1">
          <mxGeometry x="140" y="980" width="120" height="60" as="geometry" />
        </mxCell>
        <mxCell id="gm9R7flEmmk7f2T_RE_j-31" value="" style="edgeStyle=orthogonalEdgeStyle;rounded=0;orthogonalLoop=1;jettySize=auto;html=1;" edge="1" parent="1" source="gm9R7flEmmk7f2T_RE_j-32" target="gm9R7flEmmk7f2T_RE_j-33">
          <mxGeometry relative="1" as="geometry" />
        </mxCell>
        <mxCell id="gm9R7flEmmk7f2T_RE_j-32" value="生产订单" style="shape=process;whiteSpace=wrap;html=1;backgroundOutline=1;" vertex="1" parent="1">
          <mxGeometry x="320" y="1371" width="120" height="60" as="geometry" />
        </mxCell>
        <mxCell id="gm9R7flEmmk7f2T_RE_j-33" value="end" style="ellipse;whiteSpace=wrap;html=1;" vertex="1" parent="1">
          <mxGeometry x="320" y="1503" width="120" height="60" as="geometry" />
        </mxCell>
        <mxCell id="gm9R7flEmmk7f2T_RE_j-34" value="" style="edgeStyle=orthogonalEdgeStyle;rounded=0;orthogonalLoop=1;jettySize=auto;html=1;" edge="1" parent="1" source="gm9R7flEmmk7f2T_RE_j-35" target="gm9R7flEmmk7f2T_RE_j-32">
          <mxGeometry relative="1" as="geometry" />
        </mxCell>
        <mxCell id="gm9R7flEmmk7f2T_RE_j-35" value="检查特卖和现货订单最少下单金额" style="rhombus;whiteSpace=wrap;html=1;rounded=0;" vertex="1" parent="1">
          <mxGeometry x="340" y="1230" width="80" height="80" as="geometry" />
        </mxCell>
        <mxCell id="gm9R7flEmmk7f2T_RE_j-36" style="edgeStyle=orthogonalEdgeStyle;rounded=0;orthogonalLoop=1;jettySize=auto;html=1;entryX=0;entryY=0.5;entryDx=0;entryDy=0;" edge="1" parent="1" source="gm9R7flEmmk7f2T_RE_j-38" target="gm9R7flEmmk7f2T_RE_j-28">
          <mxGeometry relative="1" as="geometry">
            <Array as="points">
              <mxPoint x="300" y="1150" />
              <mxPoint x="300" y="1010" />
            </Array>
          </mxGeometry>
        </mxCell>
        <mxCell id="gm9R7flEmmk7f2T_RE_j-37" value="" style="edgeStyle=orthogonalEdgeStyle;rounded=0;orthogonalLoop=1;jettySize=auto;html=1;" edge="1" parent="1" source="gm9R7flEmmk7f2T_RE_j-38" target="gm9R7flEmmk7f2T_RE_j-39">
          <mxGeometry relative="1" as="geometry" />
        </mxCell>
        <mxCell id="gm9R7flEmmk7f2T_RE_j-38" value="库存是否正常" style="rhombus;whiteSpace=wrap;html=1;" vertex="1" parent="1">
          <mxGeometry x="160" y="1110" width="80" height="80" as="geometry" />
        </mxCell>
        <mxCell id="gm9R7flEmmk7f2T_RE_j-39" value="end" style="ellipse;whiteSpace=wrap;html=1;" vertex="1" parent="1">
          <mxGeometry x="140" y="1280" width="120" height="60" as="geometry" />
        </mxCell>
      </root>
    </mxGraphModel>
  </diagram>
</mxfile>
